<?xml version="1.0" standalone="no"?>
<!DOCTYPE svg PUBLIC "-//W3C//DTD SVG 20010904//EN"
 "http://www.w3.org/TR/2001/REC-SVG-20010904/DTD/svg10.dtd">
<svg version="1.0" xmlns="http://www.w3.org/2000/svg"
 width="596.000000pt" height="609.000000pt" viewBox="0 0 596.000000 609.000000"
 preserveAspectRatio="xMidYMid meet">
<metadata>
Created by potrace 1.16, written by Peter Selinger 2001-2019
</metadata>
<g transform="translate(0.000000,609.000000) scale(0.100000,-0.100000)"
fill="#000000" stroke="none">
<path d="M2910 5534 c-114 -19 -151 -29 -195 -47 -361 -153 -533 -527 -410
-894 104 -310 426 -515 744 -474 308 39 536 241 612 541 28 109 23 279 -11
380 -45 135 -127 256 -228 335 -69 55 -196 119 -274 139 -61 16 -197 27 -238
20z"/>
<path d="M2180 3929 c-82 -16 -200 -82 -269 -152 -35 -35 -69 -73 -75 -84 -6
-10 -166 -232 -356 -492 -190 -260 -392 -539 -450 -620 -59 -80 -141 -193
-185 -251 -90 -121 -122 -184 -136 -270 -17 -105 18 -231 88 -314 99 -118 278
-174 419 -131 67 21 661 185 668 185 3 0 6 -142 6 -315 l0 -315 1100 0 1100 0
0 315 c0 173 2 315 5 315 8 0 516 -140 624 -172 87 -25 115 -30 175 -25 101 7
175 38 246 104 86 79 123 158 128 273 6 119 -12 175 -91 286 -425 596 -1048
1443 -1109 1505 -80 83 -174 137 -276 158 -64 13 -1543 13 -1612 0z m259 -654
c293 -96 540 -175 549 -175 8 0 256 79 551 175 295 96 540 175 544 175 4 0 7
-189 7 -421 0 -397 -1 -421 -17 -414 -10 5 -49 17 -88 27 -105 29 -224 21
-310 -21 -166 -82 -250 -274 -196 -447 38 -123 118 -205 255 -263 l70 -29
-401 -131 c-220 -72 -406 -131 -414 -131 -8 0 -195 59 -416 132 l-403 132 71
27 c151 59 241 161 269 307 31 158 -59 332 -208 404 -87 41 -203 49 -307 20
-38 -10 -78 -22 -87 -27 -17 -7 -18 17 -18 414 0 232 3 421 8 421 4 0 247 -79
541 -175z"/>
<path d="M700 869 c-38 -16 -59 -39 -66 -74 -7 -37 15 -89 45 -105 13 -7 748
-10 2276 -10 l2256 0 24 24 c33 33 39 66 21 110 -30 71 158 66 -2308 65 -1441
0 -2232 -4 -2248 -10z"/>
</g>
</svg>
